<svg xmlns="http://www.w3.org/2000/svg" viewBox="0 0 512.09577 512" width="100px" height="100px"><path d="m494.472656 216.210938-33.367187-88.660157c-15.410157-40.066406-48.132813-71.003906-89.003907-84.136719l-90.453124-28.332031c-41.136719-13.054687-85.988282-6.511719-121.683594 17.75l-79.105469 52.820313c-2.902344 1.960937-5.800781 4.011718-8.53125 6.230468-31.191406 24.125-51.019531 60.074219-54.785156 99.328126l-8.449219 94.804687c-3.761719 42.691406 12.167969 84.765625 43.265625 114.261719l68.777344 64.9375c31.292969 29.554687 74.417969 43.109375 116.992187 36.777344l94.207032-13.308594c36.824218-5.476563 70.113281-24.945313 92.929687-54.359375 3.503906-4.488281 6.726563-9.191407 9.644531-14.078125l48.46875-82.175782c22.179688-36.773437 26.265625-81.6875 11.09375-121.859374zm0 0" fill="#676767"/><path d="m425.265625 434.324219c-22.816406 29.414062-56.105469 48.882812-92.929687 54.359375l-94.207032 13.308594c-42.574218 6.332031-85.699218-7.222657-116.992187-36.777344l-68.777344-64.9375c-31.097656-29.496094-47.027344-71.570313-43.265625-114.261719l8.449219-94.804687c3.765625-39.253907 23.59375-75.203126 54.785156-99.328126-16.46875 21.34375-26.582031 46.894532-29.183594 73.726563l-8.449219 94.804687c-3.761718 42.695313 12.167969 84.769532 43.261719 114.261719l68.78125 64.9375c31.292969 29.554688 74.417969 43.113281 116.992188 36.78125l94.207031-13.3125c24.542969-3.636719 47.734375-13.539062 67.328125-28.757812zm0 0" fill="#454545"/><path d="m196.316406 179.175781c0 28.277344-22.921875 51.203125-51.199218 51.203125-28.277344 0-51.199219-22.925781-51.199219-51.203125 0-28.273437 22.921875-51.199219 51.199219-51.199219 28.277343 0 51.199218 22.925782 51.199218 51.199219zm0 0" fill="#454545"/><g fill="#323232"><path d="m136.582031 324.246094c0 14.136718-11.460937 25.597656-25.597656 25.597656-14.140625 0-25.601563-11.460938-25.601563-25.597656 0-14.140625 11.460938-25.601563 25.601563-25.601563 14.136719 0 25.597656 11.460938 25.597656 25.601563zm0 0"/><path d="m307.25 110.910156c0 14.140625-11.460938 25.601563-25.601562 25.601563-14.136719 0-25.597657-11.460938-25.597657-25.601563 0-14.136718 11.460938-25.597656 25.597657-25.597656 14.140624 0 25.601562 11.460938 25.601562 25.597656zm0 0"/><path d="m366.984375 349.84375c0 9.425781-7.640625 17.066406-17.066406 17.066406s-17.070313-7.640625-17.070313-17.066406 7.644532-17.066406 17.070313-17.066406 17.066406 7.640625 17.066406 17.066406zm0 0"/><path d="m273.117188 273.042969c0 14.140625-11.460938 25.601562-25.601563 25.601562-14.136719 0-25.597656-11.460937-25.597656-25.601562 0-14.136719 11.460937-25.597657 25.597656-25.597657 14.140625 0 25.601563 11.460938 25.601563 25.597657zm0 0"/><path d="m246.484375 436.210938c0 14.136718-11.460937 25.597656-25.601563 25.597656-14.136718 0-25.597656-11.460938-25.597656-25.597656 0-14.140626 11.460938-25.601563 25.597656-25.601563 14.140626 0 25.601563 11.460937 25.601563 25.601563zm0 0"/></g><path d="m418.183594 324.246094c-2.269532.019531-4.453125-.871094-6.058594-2.476563s-2.5-3.789062-2.476562-6.058593c.015624-1.113282.246093-2.214844.683593-3.242188.433594-1.035156 1.039063-1.988281 1.792969-2.816406 2.472656-2.386719 6.117188-3.089844 9.300781-1.792969 2.144531.777344 3.832031 2.464844 4.609375 4.609375.4375 1.027344.667969 2.128906.679688 3.242188-.03125 2.257812-.914063 4.421874-2.472656 6.058593-.816407.773438-1.773438 1.378907-2.816407 1.792969-1.027343.4375-2.128906.667969-3.242187.683594zm0 0" fill="#bdbdbd"/><path d="m264.582031 375.445312c-2.269531.023438-4.453125-.871093-6.058593-2.476562-1.605469-1.605469-2.496094-3.789062-2.472657-6.058594.011719-1.113281.246094-2.214844.679688-3.242187.433593-1.035157 1.039062-1.984375 1.792969-2.816407 2.472656-2.386718 6.121093-3.085937 9.300781-1.792968 2.144531.777344 3.832031 2.464844 4.609375 4.609375.4375 1.027343.667968 2.128906.683594 3.242187-.035157 2.261719-.917969 4.421875-2.476563 6.058594-.816406.773438-1.769531 1.378906-2.816406 1.792969-1.023438.4375-2.125.667969-3.242188.683593zm0 0" fill="#bdbdbd"/><path d="m196.316406 366.910156c-2.269531.023438-4.453125-.867187-6.058594-2.472656-1.605468-1.605469-2.496093-3.789062-2.476562-6.058594.015625-1.121094.246094-2.222656.683594-3.253906.4375-1.027344 1.042968-1.976562 1.792968-2.804688 2.472657-2.382812 6.117188-3.089843 9.300782-1.800781 1.03125.4375 1.984375 1.046875 2.816406 1.800781.75.828126 1.355469 1.777344 1.792969 2.804688.4375 1.03125.667969 2.132812.679687 3.253906.082032 3.472656-2.039062 6.621094-5.289062 7.847656-1.027344.4375-2.128906.671876-3.242188.683594zm0 0" fill="#bdbdbd"/><path d="m273.117188 196.246094c-2.269532.019531-4.453126-.871094-6.058594-2.476563-1.605469-1.605469-2.5-3.789062-2.476563-6.058593.011719-1.117188.246094-2.222657.683594-3.25.433594-1.03125 1.039063-1.980469 1.792969-2.808594 2.472656-2.382813 6.117187-3.089844 9.300781-1.800782 1.03125.4375 1.984375 1.046876 2.816406 1.800782.75.828125 1.355469 1.777344 1.792969 2.808594.4375 1.027343.667969 2.132812.679688 3.25.082031 3.472656-2.039063 6.621093-5.289063 7.851562-1.027344.4375-2.128906.667969-3.242187.683594zm0 0" fill="#bdbdbd"/><path d="m483.378906 338.070312-48.46875 82.175782c-2.917968 4.886718-6.140625 9.589844-9.644531 14.078125-12.050781 9.378906-25.535156 16.757812-39.9375 21.84375 2.5-3.304688 4.808594-6.753907 6.914063-10.324219l48.46875-82.175781c22.179687-36.769531 26.269531-81.683594 11.09375-121.855469l-33.367188-88.660156c-15.40625-40.070313-48.132812-71.003906-89-84.140625l-90.453125-28.328125c-32.117187-10.144532-66.796875-8.480469-97.792969 4.691406l18.773438-12.542969c35.695312-24.261719 80.546875-30.804687 121.683594-17.75l90.453124 28.332031c40.871094 13.132813 73.59375 44.070313 89.003907 84.136719l33.367187 88.660157c15.171875 40.171874 11.085938 85.085937-11.09375 121.859374zm0 0" fill="#454545"/><path d="m452.316406 204.777344c0 28.277344-22.921875 51.199218-51.199218 51.199218-28.277344 0-51.199219-22.921874-51.199219-51.199218s22.921875-51.199219 51.199219-51.199219c28.277343 0 51.199218 22.921875 51.199218 51.199219zm0 0" fill="#454545"/><path d="m418.183594 324.246094c-2.269532.019531-4.453125-.871094-6.058594-2.476563s-2.5-3.789062-2.476562-6.058593c.015624-1.113282.246093-2.214844.683593-3.242188.433594-1.035156 1.039063-1.988281 1.792969-2.816406 2.472656-2.386719 6.117188-3.089844 9.300781-1.792969 2.144531.777344 3.832031 2.464844 4.609375 4.609375.4375 1.027344.667969 2.128906.679688 3.242188-.03125 2.257812-.914063 4.421874-2.472656 6.058593-.816407.773438-1.773438 1.378907-2.816407 1.792969-1.027343.4375-2.128906.667969-3.242187.683594zm0 0"/><path d="m264.582031 375.445312c-2.269531.023438-4.453125-.871093-6.058593-2.476562-1.605469-1.605469-2.496094-3.789062-2.472657-6.058594.011719-1.113281.246094-2.214844.679688-3.242187.433593-1.035157 1.039062-1.984375 1.792969-2.816407 2.472656-2.386718 6.121093-3.085937 9.300781-1.792968 2.144531.777344 3.832031 2.464844 4.609375 4.609375.4375 1.027343.667968 2.128906.683594 3.242187-.035157 2.261719-.917969 4.421875-2.476563 6.058594-.816406.773438-1.769531 1.378906-2.816406 1.792969-1.023438.4375-2.125.667969-3.242188.683593zm0 0"/><path d="m196.316406 366.910156c-2.269531.023438-4.453125-.867187-6.058594-2.472656-1.605468-1.605469-2.496093-3.789062-2.476562-6.058594.015625-1.121094.246094-2.222656.683594-3.253906.4375-1.027344 1.042968-1.976562 1.792968-2.804688 2.472657-2.382812 6.117188-3.089843 9.300782-1.800781 1.03125.4375 1.984375 1.046875 2.816406 1.800781.75.828126 1.355469 1.777344 1.792969 2.804688.4375 1.03125.667969 2.132812.679687 3.253906.082032 3.472656-2.039062 6.621094-5.289062 7.847656-1.027344.4375-2.128906.671876-3.242188.683594zm0 0"/><path d="m273.117188 196.246094c-2.269532.019531-4.453126-.871094-6.058594-2.476563-1.605469-1.605469-2.5-3.789062-2.476563-6.058593.011719-1.117188.246094-2.222657.683594-3.25.433594-1.03125 1.039063-1.980469 1.792969-2.808594 2.472656-2.382813 6.117187-3.089844 9.300781-1.800782 1.03125.4375 1.984375 1.046876 2.816406 1.800782.75.828125 1.355469 1.777344 1.792969 2.808594.4375 1.027343.667969 2.132812.679688 3.25.082031 3.472656-2.039063 6.621093-5.289063 7.851562-1.027344.4375-2.128906.667969-3.242187.683594zm0 0"/><path d="m401.117188 145.042969c-28.5 0-53.03125 20.128906-58.589844 48.078125-5.5625 27.949218 9.398437 55.9375 35.726562 66.84375s56.691406 1.695312 72.523438-22.003906c15.832031-23.695313 12.722656-55.273438-7.429688-75.421876-11.175781-11.238281-26.382812-17.539062-42.230468-17.496093zm30.164062 89.910156c-14.394531 14.390625-36.949219 16.609375-53.875 5.296875-16.921875-11.308594-23.5-33-15.707031-51.804688 7.789062-18.804687 27.78125-29.488281 47.742187-25.515624 19.964844 3.972656 34.339844 21.492187 34.339844 41.847656.03125 11.324218-4.46875 22.191406-12.5 30.175781zm0 0"/><path d="m204.847656 179.175781c.003906-28.496093-20.125-53.023437-48.074218-58.585937-27.945313-5.5625-55.933594 9.390625-66.839844 35.71875-10.910156 26.328125-1.703125 56.691406 21.988281 72.527344 23.695313 15.835937 55.273437 12.730468 75.425781-7.417969 11.238282-11.179688 17.542969-26.386719 17.5-42.242188zm-59.730468 42.667969c-20.355469 0-37.878907-14.378906-41.847657-34.34375-3.972656-19.964844 6.714844-39.953125 25.519531-47.742188 18.808594-7.789062 40.496094-1.207031 51.804688 15.71875 11.308594 16.925782 9.082031 39.484376-5.3125 53.875-7.984375 8.027344-18.84375 12.523438-30.164062 12.492188zm0 0"/><path d="m110.984375 290.109375c-16.285156 0-30.304687 11.5-33.484375 27.46875-3.179688 15.972656 5.363281 31.964844 20.40625 38.199219 15.046875 6.234375 32.398438.972656 41.445312-12.566406 9.050782-13.535157 7.277344-31.582032-4.238281-43.097657-6.382812-6.421875-15.074219-10.023437-24.128906-10.003906zm12.066406 46.199219c-6.753906 6.453125-17.382812 6.453125-24.132812 0-4.882813-4.878906-6.34375-12.21875-3.703125-18.597656 2.640625-6.378907 8.863281-10.535157 15.769531-10.535157 6.902344 0 13.125 4.15625 15.765625 10.535157 2.640625 6.378906 1.179688 13.71875-3.699219 18.597656zm0 0"/><path d="m281.648438 76.777344c-16.28125-.003906-30.300782 11.496094-33.480469 27.46875-3.183594 15.96875 5.363281 31.964844 20.40625 38.199218 15.042969 6.234376 32.394531.972657 41.445312-12.566406 9.050781-13.539062 7.273438-31.582031-4.238281-43.101562-6.386719-6.421875-15.074219-10.019532-24.132812-10zm12.066406 46.199218c-6.75 6.449219-17.378906 6.449219-24.132813 0-4.878906-4.878906-6.339843-12.222656-3.699219-18.597656 2.640626-6.378906 8.863282-10.539062 15.765626-10.539062 6.90625 0 13.128906 4.160156 15.769531 10.539062 2.640625 6.375 1.179687 13.71875-3.703125 18.597656zm0 0"/><path d="m331.816406 331.738281c-6.46875 6.464844-8.996094 15.890625-6.632812 24.726563 2.367187 8.835937 9.265625 15.738281 18.101562 18.109375 8.832032 2.367187 18.261719-.15625 24.730469-6.621094 9.859375-10.019531 9.796875-26.117187-.144531-36.058594-9.9375-9.9375-26.03125-10.007812-36.054688-.148437zm24.132813 24.140625c-2.878907 2.875-7.390625 3.320313-10.773438 1.058594-3.386719-2.261719-4.703125-6.601562-3.144531-10.363281 1.558594-3.757813 5.558594-5.894531 9.550781-5.101563 3.992188.796875 6.867188 4.300782 6.867188 8.371094 0 2.261719-.898438 4.433594-2.5 6.035156zm0 0"/><path d="m247.515625 238.910156c-16.285156-.003906-30.304687 11.496094-33.484375 27.46875-3.179688 15.96875 5.367188 31.964844 20.410156 38.199219 15.042969 6.234375 32.394532.972656 41.445313-12.566406 9.050781-13.539063 7.273437-31.582031-4.238281-43.097657-6.386719-6.421874-15.074219-10.023437-24.132813-10.003906zm12.066406 46.199219c-6.75 6.449219-17.378906 6.449219-24.132812 0-4.882813-4.878906-6.34375-12.21875-3.699219-18.597656 2.640625-6.378907 8.863281-10.539063 15.765625-10.539063s13.128906 4.160156 15.769531 10.539063c2.640625 6.378906 1.179688 13.71875-3.703125 18.597656zm0 0"/><path d="m220.882812 402.085938c-16.285156 0-30.300781 11.503906-33.476562 27.476562s5.375 31.960938 20.421875 38.191406c15.042969 6.230469 32.394531.964844 41.441406-12.578125 9.042969-13.539062 7.265625-31.585937-4.253906-43.097656-6.386719-6.417969-15.078125-10.015625-24.132813-9.992187zm12.066407 46.199218c-6.753907 6.441406-17.375 6.441406-24.132813 0-4.882812-4.882812-6.34375-12.222656-3.699218-18.601562 2.640624-6.375 8.863281-10.535156 15.765624-10.535156 6.902344 0 13.128907 4.160156 15.769532 10.535156 2.640625 6.378906 1.179687 13.71875-3.703125 18.601562zm0 0"/></svg>