<?xml version="1.0" encoding="iso-8859-1"?>
<!-- Generator: Adobe Illustrator 19.0.0, SVG Export Plug-In . SVG Version: 6.00 Build 0)  -->
<svg version="1.1" id="Layer_1" xmlns="http://www.w3.org/2000/svg" xmlns:xlink="http://www.w3.org/1999/xlink" x="0px" y="0px"
	 viewBox="0 0 512 512" style="enable-background:new 0 0 512 512;" xml:space="preserve">
<g>
	<g>
		<path style="fill:#FF5419;" d="M202.414,369.778h107.17c17.534,0,31.749-14.214,31.749-31.749V117.081
			c0-17.534-14.214-31.747-31.749-31.747h-107.17c-17.534,0-31.747,14.214-31.747,31.747v220.948
			C170.667,355.564,184.88,369.778,202.414,369.778z"/>
	</g>
	<g>
		<path style="fill:#E5FFFC;" d="M72.79,237.097l82.332-82.475c7.723-7.802,18.246-12.193,29.224-12.193h11.174v-50.2
			c0-33.323,27.014-60.337,60.337-60.337l0,0c33.323,0,60.337,27.014,60.337,60.337v50.2h11.174
			c10.978,0,21.501,4.391,29.224,12.193l82.475,82.475c9.611,9.611,9.611,25.193,0,34.804l0,0c-7.49,7.49-18.934,9.347-28.408,4.61
			l-97.913-48.955l52.102,208.403c2.798,11.19-2.553,22.823-12.869,27.981l-15.308,7.654c-12.878,6.439-28.51,0.496-33.856-12.872
			l-46.887-117.388l-46.883,117.388c-5.348,13.369-20.978,19.311-33.856,12.872l-15.308-7.654
			c-10.318-5.158-15.667-16.791-12.869-27.981l52.1-208.403l-97.913,48.955c-9.475,4.737-20.918,2.881-28.408-4.61l0,0
			C63.179,262.291,63.179,246.708,72.79,237.097z"/>
	</g>
	<g>
		<path style="fill:#BBEFE8;" d="M439.067,237.097l-82.475-82.475c-7.723-7.802-18.246-12.193-29.224-12.193h-11.174v-50.2
			c0-33.323-27.014-60.337-60.337-60.337l0,0c-0.145,0-0.286,0.01-0.431,0.01v310.689l0.503-1.258l46.883,117.388
			c5.348,13.369,20.978,19.311,33.856,12.872l15.308-7.654c10.318-5.158,15.667-16.791,12.869-27.981l-52.1-208.403l97.913,48.955
			c9.475,4.737,20.918,2.881,28.408-4.61C448.677,262.291,448.677,246.708,439.067,237.097z"/>
	</g>
	<g>
		<rect x="218.074" y="81.886" style="fill:#38C6D9;" width="75.852" height="60.337"/>
	</g>
	<g>
		<rect x="255.426" y="81.886" style="fill:#386895;" width="38.5" height="60.337"/>
	</g>
	<g>
		<rect x="278.411" y="181.872" style="fill:#386895;" width="34.478" height="17.239"/>
	</g>
</g>
<g>
</g>
<g>
</g>
<g>
</g>
<g>
</g>
<g>
</g>
<g>
</g>
<g>
</g>
<g>
</g>
<g>
</g>
<g>
</g>
<g>
</g>
<g>
</g>
<g>
</g>
<g>
</g>
<g>
</g>
</svg>
