<?xml version="1.0" encoding="iso-8859-1"?>
<!-- Generator: Adobe Illustrator 19.0.0, SVG Export Plug-In . SVG Version: 6.00 Build 0)  -->
<svg xmlns="http://www.w3.org/2000/svg" xmlns:xlink="http://www.w3.org/1999/xlink" version="1.1" id="Capa_1" x="0px" y="0px" viewBox="0 0 230.737 230.737" style="enable-background:new 0 0 230.737 230.737;" xml:space="preserve" width="512px" height="512px">
<path d="M183.213,126.057l-12.871-11.923c0.327-5.95,0.499-10.782,0.499-13.473c0-40.152-19.036-77.301-50.954-99.372  C118.668,0.445,117.224,0,115.691,0c-1.511,0-3,0.458-4.198,1.288c-31.918,22.071-50.97,59.22-50.97,99.373  c0,2.69,0.135,7.523,0.462,13.472l-13.13,11.924c-4.656,4.29-8.488,12.609-8.488,18.939v46.393c0,6.112,4.016,8.442,7.648,8.442  c0.001,0,0.01,0,0.01,0c1.823,0,3.717-0.431,5.621-1.683l24.868-16.258c0.877-0.577,1.72-1.226,2.523-2.004l27.947,45.903  c1.911,3.136,4.723,4.947,7.716,4.947c2.994,0,5.806-1.792,7.716-4.928l27.947-45.874c0.803,0.778,1.644,1.479,2.521,2.056  l24.867,16.36c1.903,1.252,3.645,1.887,5.468,1.887c3.633,0,7.148-2.736,7.148-8.849v-46.393  C191.369,138.666,187.87,130.347,183.213,126.057z M115.702,102.851c-10.467,0-18.953-8.485-18.953-18.953  c0-10.467,8.485-18.953,18.953-18.953s18.953,8.485,18.953,18.953C134.655,94.366,126.169,102.851,115.702,102.851z M92.729,34.832  c6.275-9,14.043-17.562,22.973-24.233c8.93,6.671,16.698,15.233,22.973,24.233H92.729z" fill="#91DC5A"/>
<g>
</g>
<g>
</g>
<g>
</g>
<g>
</g>
<g>
</g>
<g>
</g>
<g>
</g>
<g>
</g>
<g>
</g>
<g>
</g>
<g>
</g>
<g>
</g>
<g>
</g>
<g>
</g>
<g>
</g>
</svg>
