<?xml version="1.0" encoding="iso-8859-1"?>
<!-- Generator: Adobe Illustrator 19.0.0, SVG Export Plug-In . SVG Version: 6.00 Build 0)  -->
<svg version="1.1" width="50px" height="50px" id="Layer_1" xmlns="http://www.w3.org/2000/svg" xmlns:xlink="http://www.w3.org/1999/xlink" x="0px" y="0px"
	 viewBox="0 0 512 512" style="enable-background:new 0 0 512 512;" xml:space="preserve">
<rect x="186.811" y="401.297" style="fill:#FFDA44;" width="138.378" height="69.189"/>
<path style="fill:#FF9811;" d="M274.313,387.459h-36.629h-85.468v35.743c0,55.497,61.048,88.797,61.048,88.797
	s24.752-13.506,42.734-37.644C273.982,498.494,298.735,512,298.735,512s61.048-33.301,61.048-88.797v-35.743H274.313z
	 M213.292,460.191c-8.488-8.163-16.939-19.027-19.056-31.218h38.065C230.197,441.197,221.783,452.038,213.292,460.191z
	 M298.762,460.191c-8.488-8.163-16.94-19.027-19.057-31.218h38.066C315.667,441.197,307.254,452.038,298.762,460.191z"/>
<path style="fill:#FF5023;" d="M274.313,387.459H256v86.896C273.984,498.494,298.735,512,298.735,512s61.048-33.301,61.048-88.797
	v-35.743H274.313z M298.762,460.191c-8.488-8.163-16.94-19.027-19.057-31.218h38.066
	C315.667,441.197,307.254,452.038,298.762,460.191z"/>
<polygon style="fill:#3C5D76;" points="69.189,224.136 69.189,309.673 27.676,351.186 27.676,428.973 193.73,428.973 
	193.73,141.109 "/>
<polygon style="fill:#1E2E3B;" points="442.811,309.673 442.811,224.136 318.27,141.109 318.27,428.973 484.324,428.973 
	484.324,351.186 "/>
<path style="fill:#CCE9F9;" d="M359.784,428.973V150.96C359.784,56.606,256,0,256,0S152.216,56.606,152.216,150.96v278.013H359.784z
	"/>
<path style="fill:#93C7EF;" d="M359.784,428.973V150.96C359.784,56.606,256,0,256,0v428.973H359.784z"/>
<g>
	<path style="fill:#3C5D76;" d="M297.514,124.541c0-22.927-18.588-41.514-41.514-41.514l0,0c-22.925,0-41.514,18.587-41.514,41.514
		H297.514z"/>
	<ellipse style="fill:#3C5D76;" cx="256" cy="276.757" rx="41.514" ry="55.351"/>
</g>
<g>
	<path style="fill:#1E2E3B;" d="M297.514,124.541c0-22.927-18.588-41.514-41.514-41.514l0,0c0,20.757,0,18.587,0,41.514H297.514z"/>
	<path style="fill:#1E2E3B;" d="M256,221.405c22.927,0,41.514,24.782,41.514,55.351c0,30.571-18.587,55.351-41.514,55.351"/>
</g>
<rect x="152.216" y="387.459" style="fill:#78B9EB;" width="207.568" height="41.514"/>
<rect x="256" y="387.459" style="fill:#5A8BB0;" width="103.784" height="41.514"/>
<g>
</g>
<g>
</g>
<g>
</g>
<g>
</g>
<g>
</g>
<g>
</g>
<g>
</g>
<g>
</g>
<g>
</g>
<g>
</g>
<g>
</g>
<g>
</g>
<g>
</g>
<g>
</g>
<g>
</g>
</svg>
